<?xml version="1.0" encoding="iso-8859-1"?>
<!-- Generator: Adobe Illustrator 19.1.0, SVG Export Plug-In . SVG Version: 6.00 Build 0)  -->
<svg>
    <g>
        <svg t="1499908282233" class="icon" style="" viewBox="0 0 1000 1000" version="1.1"
             xmlns="http://www.w3.org/2000/svg" p-id="1304" xmlns:xlink="http://www.w3.org/1999/xlink" width="1000"
             height="1000">
            <defs>
                <style type="text/css"></style>
            </defs>
            <rect width="1000" height="1000"
                  style="fill:white; fill-opacity: 0"/>
            <path d="M513.548387 589.419355c3.096774-5.16129 6.193548-9.806452 8.774194-14.967742 12.387097-21.16129 31.483871-30.451613 49.548387-28.387097-12.903226-21.16129-28.387097-40.774194-46.451613-58.83871-94.967742-94.967742-94.967742-247.741935 0-340.645161 13.935484-13.935484 13.935484-36.645161 0-52.129032-13.935484-13.935484-36.645161-13.935484-52.129032 0C413.419355 154.322581 381.419355 232.258065 381.419355 315.870968c0 84.129032 32 162.064516 91.870968 221.419355C489.290323 552.774194 502.709677 570.322581 513.548387 589.419355z"
                  p-id="1305"></path>
            <path d="M173.419355 147.096774c13.935484-13.935484 13.935484-36.645161 0-52.129032-13.935484-13.935484-36.645161-13.935484-52.129032 0C61.419355 154.83871 29.419355 232.774194 29.419355 316.387097c0 83.612903 32 162.064516 91.870968 221.419355 46.451613 43.870968 70.709677 105.290323 70.709677 169.290323 0 64-24.258065 125.419355-70.193548 171.354839-13.935484 13.935484-13.935484 36.645161 0 52.129032 7.741935 7.741935 17.032258 10.83871 25.806452 10.83871s18.580645-3.096774 25.806452-10.83871c59.870968-59.870968 91.870968-137.806452 91.870968-221.419355 0-83.612903-32-162.064516-91.870968-221.419355C78.451613 392.774194 78.451613 240 173.419355 147.096774z"
                  p-id="1306"></path>
            <path d="M903.225806 486.193548c-45.935484-45.935484-70.193548-105.290323-70.193548-171.354839 0-64 24.258065-125.419355 70.193548-171.354839 13.935484-13.935484 13.935484-36.645161 0-52.129032-13.935484-13.935484-36.645161-13.935484-52.129032 0-59.870968 59.870968-91.870968 137.806452-91.870968 221.419355 0 83.612903 32 162.064516 91.870968 221.419355 95.483871 96.516129 95.483871 249.290323 0.516129 342.709677-13.935484 13.935484-13.935484 36.645161 0 52.129032 7.741935 7.741935 17.032258 10.83871 25.806452 10.83871 9.290323 0 18.580645-3.096774 25.806452-10.83871 59.870968-59.870968 91.870968-137.806452 91.870968-221.419355C995.096774 624 963.096774 545.548387 903.225806 486.193548z"
                  p-id="1307"></path>
            <path d="M782.451613 881.032258c-55.225806-96-111.483871-191.483871-167.741935-286.967742-20.129032-34.064516-58.83871-34.064516-78.967742 0-58.322581 96.516129-115.612903 193.548387-173.419355 290.064516-7.741935 13.419355-13.935484 27.354839-5.677419 42.83871 8.774194 16 24.258065 16.516129 39.741935 16.516129l369.032258 0c15.483871-0.516129 27.354839-11.354839 26.322581-26.83871C791.225806 904.774194 788.645161 891.354839 782.451613 881.032258zM571.870968 890.83871c-15.483871 0-27.354839-11.870968-27.354839-27.354839 0-14.967742 11.870968-26.83871 27.354839-26.83871 16-0.516129 27.354839 11.354839 27.354839 26.83871S587.354839 890.83871 571.870968 890.83871zM600.258065 729.806452c0 17.548387 0 35.096774 0 53.16129 0 16.516129-11.870968 28.387097-27.354839 28.387097-14.967742 0-27.354839-12.387097-27.354839-28.903226 0-36.129032 0-72.258065 0-108.387097 0-16 11.870968-27.870968 26.83871-27.870968 14.967742 0 27.354839 12.387097 27.870968 28.387097C600.258065 692.645161 600.258065 711.225806 600.258065 729.806452z"
                  p-id="1308"></path>
        </svg>
    </g>
    <g>
        <svg t="1499908316627" class="icon" style="" viewBox="0 0 1000 1000" version="1.1"
             xmlns="http://www.w3.org/2000/svg" p-id="1423" xmlns:xlink="http://www.w3.org/1999/xlink" width="1000"
             height="1000">
            <defs>
                <style type="text/css"></style>
            </defs>
            <path d="M625.472 606.912 625.472 161.92c0-64.448-50.816-116.672-113.472-116.672S398.528 97.536 398.528 161.92l0 444.992c-51.392 36.928-85.12 98.24-85.12 167.616 0 112.768 88.896 204.224 198.592 204.224 109.696 0 198.592-91.392 198.592-204.224C710.592 705.152 676.928 643.84 625.472 606.912L625.472 606.912 625.472 606.912zM512 949.568c-93.888 0-170.24-78.528-170.24-175.04 0-57.152 27.264-110.848 72.96-143.68L426.88 622.08 426.88 161.92c0-48.256 38.144-87.488 85.12-87.488 46.912 0 85.12 39.232 85.12 87.488L597.12 622.08l12.096 8.704c45.76 32.768 72.96 86.464 72.96 143.68C682.176 871.104 605.888 949.568 512 949.568L512 949.568 512 949.568zM512 949.568"
                  p-id="1424"></path>
            <path d="M554.56 666.24 554.56 348.48 554.432 348.48C553.024 325.696 534.528 307.712 512 307.712c-22.528 0-41.024 18.048-42.432 40.832L469.44 348.544l0 317.696c-41.6 17.28-70.912 59.264-70.912 108.224 0 64.448 50.752 116.672 113.472 116.672s113.472-52.224 113.472-116.672C625.472 725.44 596.096 683.52 554.56 666.24L554.56 666.24 554.56 666.24zM554.56 666.24"
                  p-id="1425"></path>
        </svg>
    </g>
    <g>
        <svg t="1500337790749" class="icon" style="" viewBox="0 0 1000 1000" version="1.1"
             xmlns="http://www.w3.org/2000/svg" p-id="4590" xmlns:xlink="http://www.w3.org/1999/xlink" width="1000"
             height="1000">
            <defs>
                <style type="text/css"></style>
            </defs>
            <path d="M512 1024c0 0-358.4-494.1312-358.4-682.6496C153.6 152.7808 314.0608 0 512 0c197.9392 0 358.4 152.7808 358.4 341.3504C870.4 529.8688 512 1024 512 1024zM512 204.8C427.1616 204.8 358.4 273.5616 358.4 358.4s68.7616 153.6 153.6 153.6c84.7872 0 153.6-68.7616 153.6-153.6S596.7872 204.8 512 204.8z"
                  p-id="4591" fill="#2c2c2c"></path>
        </svg>
    </g>
</svg>
